<svg preserveAspectRatio="none" width="100%" height="100%" overflow="visible" style="display: block;" viewBox="0 0 32 34" fill="none" xmlns="http://www.w3.org/2000/svg">
<path id="Vector" d="M31.4499 4.9788C30.9998 4.3727 30.3374 3.97803 29.5852 3.86567L26.0188 3.3261V2.8087C26.0188 1.25947 24.7448 0 23.1777 0H2.84114C1.27402 0 0 1.25947 0 2.8087V27.6435C0 29.1927 1.27402 30.4522 2.84114 30.4522H3.62769C3.98209 30.7005 4.3948 30.8705 4.83744 30.9385L24.9451 33.966C25.0931 33.9882 25.2396 34 25.3862 34C25.9828 34 26.563 33.8137 27.0535 33.4575C27.6666 33.0125 28.0658 32.3577 28.1795 31.6141L31.9656 7.06467C32.0823 6.32407 31.8998 5.58491 31.4512 4.98033L31.4499 4.9788ZM0.897411 27.6436V2.80885C0.897411 1.74893 1.76917 0.887126 2.84134 0.887126H23.1779C24.25 0.887126 25.1218 1.74893 25.1218 2.80885V27.6436C25.1218 28.7035 24.25 29.5653 23.1779 29.5653H2.84134C1.76917 29.5653 0.897411 28.7035 0.897411 27.6436ZM11.4334 7.26303C11.6083 7.43598 11.6083 7.71684 11.4334 7.88979L8.91225 10.3821C8.70739 10.5846 8.43971 10.6852 8.17206 10.6852C7.9044 10.6852 7.63674 10.5846 7.43186 10.3821L6.25056 9.21431C6.07561 9.04135 6.07561 8.76049 6.25056 8.58755C6.42552 8.4146 6.70962 8.41459 6.88457 8.58755L8.06587 9.75536C8.12418 9.81301 8.21988 9.81301 8.2782 9.75536L10.7993 7.26303C10.9743 7.09007 11.2584 7.09007 11.4334 7.26303ZM3.58892 9.3991C3.58892 7.19797 5.39978 5.40775 7.62637 5.40775C8.2245 5.40775 8.8002 5.5334 9.33552 5.78027C9.55982 5.88375 9.65701 6.14836 9.55234 6.3701C9.44767 6.59184 9.18 6.68792 8.9557 6.58445C8.54001 6.39227 8.0929 6.29471 7.62633 6.29471C5.89475 6.29471 4.48614 7.68724 4.48614 9.39905C4.48614 11.1109 5.89475 12.5034 7.62633 12.5034C8.60727 12.5034 9.51195 12.0643 10.1056 11.2986C10.2566 11.1035 10.5393 11.068 10.7351 11.2173C10.931 11.3666 10.9684 11.6445 10.8174 11.8396C10.0518 12.8256 8.88838 13.3903 7.62635 13.3903C5.3998 13.3903 3.58892 11.6003 3.58892 9.3991ZM14.3553 8.38796C14.3553 8.14257 14.5557 7.94447 14.8039 7.94447H19.589C19.8372 7.94447 20.0376 8.14256 20.0376 8.38796C20.0376 8.63335 19.8372 8.83145 19.589 8.83145H14.8039C14.5557 8.83145 14.3553 8.63336 14.3553 8.38796ZM22.4302 10.7532C22.4302 10.9986 22.2298 11.1967 21.9816 11.1967H14.804C14.5558 11.1967 14.3554 10.9986 14.3554 10.7532C14.3554 10.5078 14.5558 10.3097 14.804 10.3097H21.9816C22.2298 10.3097 22.4302 10.5078 22.4302 10.7532ZM11.4334 18.9175C11.6083 19.0905 11.6083 19.3713 11.4334 19.5443L8.91225 22.0366C8.70739 22.2391 8.43971 22.3397 8.17206 22.3397C7.9044 22.3397 7.63674 22.2391 7.43186 22.0366L6.25056 20.8688C6.07561 20.6958 6.07561 20.415 6.25056 20.242C6.42552 20.0691 6.70962 20.0691 6.88457 20.242L8.06587 21.4098C8.12418 21.4675 8.21988 21.4675 8.2782 21.4098L10.7993 18.9175C10.9743 18.7446 11.2584 18.7446 11.4334 18.9175ZM10.7351 22.8718C10.9309 23.0211 10.9683 23.299 10.8173 23.4941C10.0517 24.4801 8.8883 25.0448 7.62627 25.0448C5.39972 25.0448 3.58882 23.2546 3.58882 21.0535C3.58882 18.8524 5.39968 17.0621 7.62627 17.0621C8.2244 17.0621 8.8001 17.1878 9.33542 17.4347C9.55972 17.5381 9.65691 17.8027 9.55224 18.0245C9.44757 18.2462 9.1799 18.3423 8.9556 18.2388C8.53991 18.0467 8.0928 17.9491 7.62623 17.9491C5.89465 17.9491 4.48604 19.3416 4.48604 21.0534C4.48604 22.7652 5.89465 24.1578 7.62623 24.1578C8.60717 24.1578 9.51186 23.7187 10.1055 22.953C10.2565 22.7593 10.5392 22.7225 10.7351 22.8718ZM14.3552 20.0424C14.3552 19.797 14.5556 19.5989 14.8039 19.5989H19.5889C19.8371 19.5989 20.0375 19.797 20.0375 20.0424C20.0375 20.2878 19.8372 20.4859 19.5889 20.4859H14.8039C14.5556 20.4859 14.3552 20.2878 14.3552 20.0424ZM22.4301 22.4076C22.4301 22.653 22.2298 22.8511 21.9815 22.8511H14.8039C14.5557 22.8511 14.3553 22.653 14.3553 22.4076C14.3553 22.1622 14.5557 21.9641 14.8039 21.9641H21.9815C22.2298 21.9641 22.4301 22.1622 22.4301 22.4076Z" fill="var(--fill-0, #515378)"/>
</svg>
