<svg preserveAspectRatio="none" width="100%" height="100%" overflow="visible" style="display: block;" viewBox="0 0 22 22" fill="none" xmlns="http://www.w3.org/2000/svg">
<g id="Group 198">
<path id="Star 1" d="M9.43044 1.98745C10.2312 0.973511 11.7688 0.973511 12.5696 1.98745L13.296 2.90728C13.7265 3.45241 14.409 3.73513 15.0989 3.65408L16.263 3.51732C17.5462 3.36657 18.6334 4.45384 18.4827 5.73702L18.3459 6.90109C18.2649 7.59097 18.5476 8.2735 19.0927 8.70401L20.0125 9.43044C21.0265 10.2312 21.0265 11.7688 20.0125 12.5696L19.0927 13.296C18.5476 13.7265 18.2649 14.409 18.3459 15.0989L18.4827 16.263C18.6334 17.5462 17.5462 18.6334 16.263 18.4827L15.0989 18.3459C14.409 18.2649 13.7265 18.5476 13.296 19.0927L12.5696 20.0125C11.7688 21.0265 10.2312 21.0265 9.43044 20.0125L8.70401 19.0927C8.2735 18.5476 7.59097 18.2649 6.90109 18.3459L5.73702 18.4827C4.45384 18.6334 3.36657 17.5462 3.51732 16.263L3.65408 15.0989C3.73513 14.409 3.45241 13.7265 2.90728 13.296L1.98745 12.5696C0.973511 11.7688 0.973511 10.2312 1.98745 9.43043L2.90728 8.70402C3.45241 8.2735 3.73513 7.59097 3.65408 6.90109L3.51732 5.73702C3.36657 4.45384 4.45384 3.36657 5.73702 3.51732L6.90109 3.65408C7.59097 3.73513 8.2735 3.45241 8.70401 2.90728L9.43044 1.98745Z" fill="var(--fill-0, #FF6B6B)"/>
<g id="Group 197">
<path id="Vector" d="M11 7.7V10.6333" stroke="var(--stroke-0, white)" stroke-width="1.5" stroke-linecap="round" stroke-linejoin="round"/>
<path id="Vector_2" d="M11 13.5667H11.0067" stroke="var(--stroke-0, white)" stroke-width="1.5" stroke-linecap="round" stroke-linejoin="round"/>
</g>
</g>
</svg>
