<svg preserveAspectRatio="none" width="100%" height="100%" overflow="visible" style="display: block;" viewBox="0 0 31 30" fill="none" xmlns="http://www.w3.org/2000/svg">
<g id="Group 220">
<rect id="Rectangle 57" x="12.6903" width="17.9197" height="26.2928" rx="3" transform="rotate(12.4989 12.6903 0)" fill="var(--fill-0, #515378)"/>
<path id="Vector 4" d="M18.9197 1.14046H5.28516L4.50604 1.91958V2.6987L3.72692 3.47782V4.6465V13.2168H2.16868L1.38956 14.3855V26.0723V27.6305L2.16868 28.4096H22.0362L23.2049 27.6305V14.3855L22.4258 13.2168H20.8675V10.8795L20.478 3.47782L19.6989 2.6987V1.53002L18.9197 1.14046Z" fill="var(--fill-0, #FBFAFB)"/>
<path id="Vector" d="M18.957 0.651294C19.7346 0.651507 20.3652 1.28741 20.3652 2.06926V2.65325C20.9162 2.84458 21.3164 3.3666 21.3164 3.98723V12.6376H21.8105C22.8499 12.6376 23.6942 13.4895 23.6943 14.5351V27.0009C23.6943 28.0467 22.85 28.8993 21.8105 28.8993H2.78418C1.74474 28.8993 0.900391 28.0467 0.900391 27.0009V14.5351C0.900552 13.4895 1.74484 12.6376 2.78418 12.6376H3.27832V3.98723C3.27832 3.36615 3.67844 2.84434 4.22949 2.65227V2.06926C4.22957 1.28732 4.85999 0.651359 5.6377 0.651294H18.957ZM2.78418 16.4335C2.2504 16.4335 1.8136 16.8721 1.81348 17.412V27.0009C1.81348 27.5409 2.25032 27.9804 2.78418 27.9804H21.8105C22.3444 27.9804 22.7812 27.5409 22.7812 27.0009V26.9042L22.7822 26.9032V19.33C22.7822 18.79 22.3454 18.3515 21.8115 18.3515H10.5088C10.0064 18.3515 9.53388 18.1537 9.17871 17.7958L8.11133 16.7206C7.92647 16.5356 7.68311 16.4335 7.4248 16.4335H2.78418ZM9.91895 25.1034C10.1722 25.1034 10.3757 25.3092 10.376 25.5624C10.376 25.8159 10.1723 26.0224 9.91895 26.0224H4.21094C3.95758 26.0224 3.75391 25.8159 3.75391 25.5624C3.75414 25.3092 3.95772 25.1035 4.21094 25.1034H9.91895ZM7.06543 22.2265C7.31859 22.2267 7.52148 22.4331 7.52148 22.6865C7.52131 22.9396 7.31848 23.1452 7.06543 23.1454H4.21094C3.95767 23.1454 3.75408 22.9398 3.75391 22.6865C3.75391 22.433 3.95755 22.2265 4.21094 22.2265H7.06543ZM21.3164 17.4325H21.8105C22.168 17.4325 22.4986 17.5381 22.7812 17.7128V14.5351C22.7811 13.9952 22.3443 13.5566 21.8105 13.5566H21.3164V17.4325ZM4.68652 3.48821C4.41438 3.48821 4.19156 3.71102 4.19141 3.98723L4.19043 15.5146H7.42383C7.92741 15.5146 8.40156 15.7121 8.75684 16.0702L9.82324 17.1454L9.89551 17.2109C10.0694 17.3543 10.2838 17.4325 10.5098 17.4325H20.4023V3.98723C20.4022 3.7111 20.1802 3.48833 19.9082 3.48821H4.68652ZM2.78418 13.5566C2.25041 13.5566 1.81364 13.9952 1.81348 14.5351V15.7939C2.09618 15.6188 2.42716 15.5146 2.78418 15.5146H3.27832V13.5566H2.78418ZM18.4814 11.4384C18.7346 11.4386 18.9375 11.6451 18.9375 11.8984C18.9375 12.1517 18.7347 12.3581 18.4814 12.3583H6.11328C5.86006 12.3581 5.65723 12.1517 5.65723 11.8984C5.65727 11.6451 5.86008 11.4386 6.11328 11.4384H18.4814ZM18.4814 8.56243C18.7346 8.56262 18.9373 8.76821 18.9375 9.02141C18.9375 9.27475 18.7347 9.48118 18.4814 9.48137H6.11328C5.86006 9.4812 5.65723 9.27476 5.65723 9.02141C5.65739 8.76821 5.86015 8.5626 6.11328 8.56243H18.4814ZM18.4814 5.68547C18.7347 5.68567 18.9375 5.89209 18.9375 6.14543C18.9373 6.39857 18.7345 6.60423 18.4814 6.60442H6.11328C5.86021 6.60424 5.65747 6.39858 5.65723 6.14543C5.65723 5.89209 5.86005 5.68565 6.11328 5.68547H18.4814ZM5.6377 1.57024C5.36567 1.5703 5.14378 1.79315 5.14355 2.06926V2.56926H19.4512V2.06926C19.4509 1.79326 19.2289 1.57045 18.957 1.57024H5.6377Z" fill="var(--fill-0, #515378)" stroke="var(--stroke-0, #515378)" stroke-width="0.2"/>
</g>
</svg>
