<svg preserveAspectRatio="none" width="100%" height="100%" overflow="visible" style="display: block;" viewBox="0 0 14 14" fill="none" xmlns="http://www.w3.org/2000/svg">
<g id="solar:phone-rounded-linear">
<path id="Vector" d="M5.8555 3.101L6.23408 3.77942C6.57533 4.39192 6.43825 5.19458 5.90042 5.733C5.90042 5.733 5.24708 6.38575 6.43125 7.56933C7.61367 8.75175 8.267 8.10017 8.267 8.10017C8.80542 7.56175 9.60867 7.42467 10.2206 7.76592L10.899 8.14508C11.8236 8.66075 11.9327 9.95692 11.1201 10.7701C10.6318 11.2577 10.0333 11.6381 9.37242 11.6626C8.25942 11.7052 6.36883 11.4234 4.47242 9.52758C2.57658 7.63117 2.29483 5.74058 2.33742 4.62758C2.3625 3.96667 2.74225 3.36817 3.22992 2.87992C4.04308 2.06733 5.33925 2.17642 5.85492 3.10158L5.8555 3.101Z" stroke="var(--stroke-0, #9395A8)" stroke-linecap="round"/>
</g>
</svg>
