<svg preserveAspectRatio="none" width="100%" height="100%" overflow="visible" style="display: block;" viewBox="0 0 20 20" fill="none" xmlns="http://www.w3.org/2000/svg">
<g id="Group 198">
<path id="Star 1" d="M8.43043 1.98746C9.23118 0.973513 10.7688 0.973511 11.5696 1.98745L12.0243 2.56323C12.4548 3.10837 13.1373 3.39108 13.8272 3.31003L14.5559 3.22443C15.8391 3.07367 16.9263 4.16095 16.7756 5.44413L16.69 6.17279C16.6089 6.86268 16.8916 7.54521 17.4368 7.97572L18.0125 8.43044C19.0265 9.23118 19.0265 10.7688 18.0125 11.5696L17.4368 12.0243C16.8916 12.4548 16.6089 13.1373 16.69 13.8272L16.7756 14.5559C16.9263 15.8391 15.8391 16.9263 14.5559 16.7756L13.8272 16.69C13.1373 16.6089 12.4548 16.8916 12.0243 17.4368L11.5696 18.0125C10.7688 19.0265 9.23118 19.0265 8.43044 18.0125L7.97572 17.4368C7.54521 16.8916 6.86268 16.6089 6.17279 16.69L5.44413 16.7756C4.16095 16.9263 3.07367 15.8391 3.22442 14.5559L3.31003 13.8272C3.39108 13.1373 3.10837 12.4548 2.56323 12.0243L1.98746 11.5696C0.973513 10.7688 0.973511 9.23118 1.98745 8.43043L2.56323 7.97572C3.10837 7.54521 3.39108 6.86268 3.31003 6.17279L3.22443 5.44413C3.07367 4.16095 4.16094 3.07367 5.44413 3.22442L6.17279 3.31003C6.86268 3.39108 7.54521 3.10837 7.97572 2.56323L8.43043 1.98746Z" fill="var(--fill-0, #FF6B6B)"/>
<g id="Group 197">
<path id="Vector" d="M10 7V9.66667" stroke="var(--stroke-0, white)" stroke-width="1.5" stroke-linecap="round" stroke-linejoin="round"/>
<path id="Vector_2" d="M10 12.3333H10.0067" stroke="var(--stroke-0, white)" stroke-width="1.5" stroke-linecap="round" stroke-linejoin="round"/>
</g>
</g>
</svg>
