<svg preserveAspectRatio="none" width="100%" height="100%" overflow="visible" style="display: block;" viewBox="0 0 32 32" fill="none" xmlns="http://www.w3.org/2000/svg">
<g id="Group 203">
<circle id="Ellipse 6" cx="13.1765" cy="17.8824" r="13.1765" fill="var(--fill-0, #515378)"/>
<circle id="Ellipse 7" cx="16" cy="16.9412" r="13.1765" fill="var(--fill-0, white)"/>
<path id="Vector" d="M15.4276 0.00411307C15.023 0.00411307 14.693 0.33407 14.693 0.738625V3.04833C7.56393 3.42995 1.88235 9.35044 1.88235 16.5736C1.88235 23.7983 7.96133 30.1177 15.4276 30.1177C22.4648 30.1177 28.2639 24.7223 28.9111 17.852H31.2511C31.6471 17.852 31.9713 17.5364 31.9857 17.1434V17.0558C31.9928 16.8937 32 16.7331 32 16.571C32 7.434 24.5668 7.18236e-06 15.4276 7.18236e-06L15.4276 0.00411307ZM15.4276 28.6501C8.769 28.6501 3.3515 23.233 3.3515 16.5751C3.3515 9.91708 8.376 4.90331 14.693 4.52173V17.119C14.693 17.5235 15.023 17.8535 15.4276 17.8535H27.4375C26.7947 23.9132 21.6571 28.6501 15.4276 28.6501Z" fill="var(--fill-0, #515378)"/>
</g>
</svg>
