<svg preserveAspectRatio="none" width="100%" height="100%" overflow="visible" style="display: block;" viewBox="0 0 15 15" fill="none" xmlns="http://www.w3.org/2000/svg">
<path id="Icon" d="M5.66667 13.5V8.56667C5.66667 8.1933 5.66667 8.00661 5.73933 7.86401C5.80325 7.73857 5.90523 7.63658 6.03068 7.57266C6.17328 7.5 6.35997 7.5 6.73334 7.5H8.6C8.97337 7.5 9.16006 7.5 9.30266 7.57266C9.4281 7.63658 9.53009 7.73857 9.59401 7.86401C9.66667 8.00661 9.66667 8.1933 9.66667 8.56667V13.5M1 5.83333L7.02667 1.31333C7.25617 1.1412 7.37093 1.05514 7.49696 1.02196C7.6082 0.992679 7.72513 0.992679 7.83638 1.02196C7.96241 1.05514 8.07716 1.1412 8.30667 1.31333L14.3333 5.83333M2.33334 4.83333V11.3667C2.33334 12.1134 2.33334 12.4868 2.47866 12.772C2.60649 13.0229 2.81047 13.2268 3.06135 13.3547C3.34656 13.5 3.71993 13.5 4.46667 13.5H10.8667C11.6134 13.5 11.9868 13.5 12.272 13.3547C12.5229 13.2268 12.7268 13.0229 12.8547 12.772C13 12.4868 13 12.1134 13 11.3667V4.83333L8.94667 1.79333C8.48766 1.44907 8.25815 1.27695 8.00609 1.21059C7.7836 1.15202 7.54974 1.15202 7.32725 1.21059C7.07519 1.27695 6.84568 1.44907 6.38667 1.79333L2.33334 4.83333Z" stroke="var(--stroke-0, #343A40)" stroke-width="1.33333" stroke-linecap="round" stroke-linejoin="round"/>
</svg>
