<svg width="16" height="16" viewBox="0 0 16 16" fill="none" xmlns="http://www.w3.org/2000/svg">
<path fill-rule="evenodd" clip-rule="evenodd" d="M8 0C7.47312 0 6.9946 0.15107 6.47442 0.403349C5.97284 0.647442 5.39237 1.00763 4.66828 1.45712L3.13005 2.41191C2.4454 2.83758 1.89544 3.17842 1.47274 3.50214C1.03442 3.83702 0.698046 4.17935 0.454698 4.62363C0.212093 5.06642 0.103442 5.53823 0.0506046 6.09563C-3.32677e-08 6.63516 0 7.296 0 8.12428V9.32465C0 10.7416 0 11.8601 0.11386 12.7345C0.229953 13.6313 0.475535 14.3553 1.02921 14.9276C1.58512 15.5029 2.29209 15.7604 3.16874 15.8817C4.01712 16 5.10214 16 6.46847 16H9.53153C10.8979 16 11.9829 16 12.8313 15.8817C13.7072 15.7604 14.4149 15.5029 14.9715 14.9276C15.5245 14.3553 15.77 13.6313 15.8869 12.7345C16 11.8601 16 10.7416 16 9.32465V8.12428C16 7.296 16 6.63591 15.9494 6.09563C15.8973 5.53749 15.7879 5.06642 15.5453 4.62363C15.302 4.17935 14.9648 3.83777 14.5273 3.50214C14.1046 3.17767 13.5553 2.83758 12.87 2.41191L11.3317 1.45712C10.6076 1.00763 10.0272 0.647442 9.52484 0.403349C9.00614 0.150326 8.52763 0 8 0ZM5.23163 2.42158C5.98698 1.95274 6.51907 1.62381 6.96335 1.40726C7.39572 1.19665 7.70233 1.11628 8 1.11628C8.29767 1.11628 8.60428 1.19665 9.03665 1.40726C9.48167 1.62307 10.013 1.95274 10.7684 2.42158L12.2567 3.34512C12.9719 3.7894 13.4742 4.10121 13.8493 4.38846C14.2132 4.66753 14.4223 4.89749 14.566 5.15944C14.7096 5.42214 14.7937 5.72949 14.8376 6.19981C14.883 6.68205 14.8837 7.29005 14.8837 8.15181V9.28372C14.8837 10.7498 14.8822 11.7961 14.7795 12.5901C14.6783 13.37 14.4871 13.8225 14.1693 14.1522C13.853 14.4789 13.4229 14.6731 12.678 14.7766C11.9144 14.8822 10.9075 14.8837 9.48837 14.8837H6.51163C5.09172 14.8837 4.08558 14.8822 3.32205 14.7766C2.57712 14.6724 2.14698 14.4789 1.83144 14.1514C1.51293 13.8225 1.32167 13.37 1.22121 12.5901C1.11702 11.7961 1.11628 10.7505 1.11628 9.28372V8.15181C1.11628 7.29005 1.11628 6.68205 1.16242 6.19981C1.20633 5.72949 1.29042 5.42214 1.43405 5.15944C1.57767 4.89749 1.78679 4.66753 2.15144 4.38846C2.52577 4.10121 3.02809 3.7894 3.74326 3.34512L5.23163 2.42158Z" fill="#343A40"/>
<rect x="8.82031" y="6.95703" width="4.0326" height="1.03418" rx="0.51709" fill="#343A40"/>
<rect x="4.07617" y="8.00781" width="3.67529" height="1.03418" rx="0.51709" transform="rotate(-45 4.07617 8.00781)" fill="#343A40"/>
<rect x="4.66211" y="8.86719" width="2.44315" height="1.03418" rx="0.51709" transform="rotate(-135 4.66211 8.86719)" fill="#343A40"/>
<rect x="8.82031" y="10.9648" width="4.0326" height="1.03418" rx="0.51709" fill="#343A40"/>
<rect x="4.07617" y="12.0488" width="3.67529" height="1.03418" rx="0.51709" transform="rotate(-45 4.07617 12.0488)" fill="#343A40"/>
<rect x="4.66211" y="12.9082" width="2.44315" height="1.03418" rx="0.51709" transform="rotate(-135 4.66211 12.9082)" fill="#343A40"/>
</svg>
