<svg preserveAspectRatio="none" width="100%" height="100%" overflow="visible" style="display: block;" viewBox="0 0 16 16" fill="none" xmlns="http://www.w3.org/2000/svg">
<path id="Vector" d="M12.2545 11.4031L11.7763 10.9386L10.8472 11.8949L11.3254 12.3595L11.7899 11.8813L12.2545 11.4031ZM14.5354 15.4782C14.7995 15.7347 15.2216 15.7286 15.4782 15.4646C15.7347 15.2005 15.7286 14.7784 15.4646 14.5218L15 15L14.5354 15.4782ZM13.6001 7.12073H12.9334C12.9334 10.1149 10.4296 12.5748 7.30005 12.5748V13.2415V13.9081C11.1294 13.9081 14.2668 10.8873 14.2668 7.12073H13.6001ZM7.30005 13.2415V12.5748C4.17054 12.5748 1.66667 10.1149 1.66667 7.12073H1H0.333333C0.333333 10.8873 3.47072 13.9081 7.30005 13.9081V13.2415ZM1 7.12073H1.66667C1.66667 4.12655 4.17054 1.66667 7.30005 1.66667V1V0.333333C3.47072 0.333333 0.333333 3.35414 0.333333 7.12073H1ZM7.30005 1V1.66667C10.4296 1.66667 12.9334 4.12655 12.9334 7.12073H13.6001H14.2668C14.2668 3.35414 11.1294 0.333333 7.30005 0.333333V1ZM11.7899 11.8813L11.3254 12.3595L14.5354 15.4782L15 15L15.4646 14.5218L12.2545 11.4031L11.7899 11.8813Z" fill="var(--stroke-0, #343A40)"/>
</svg>
