<svg preserveAspectRatio="none" width="100%" height="100%" overflow="visible" style="display: block;" viewBox="0 0 14 14" fill="none" xmlns="http://www.w3.org/2000/svg">
<g id="hugeicons:edit-04">
<path id="Vector" d="M7 12.25H10.5M8.45833 3.20833L10.7917 5.54167M4.767 11.5663L11.5663 4.767C11.8848 4.4485 12.0435 4.28983 12.1287 4.11833C12.2085 3.95731 12.25 3.78004 12.25 3.60033C12.25 3.42063 12.2085 3.24335 12.1287 3.08233C12.0435 2.91025 11.8848 2.75158 11.5663 2.43367C11.2484 2.11517 11.0897 1.9565 10.9177 1.87133C10.7566 1.79154 10.5794 1.75003 10.3997 1.75003C10.22 1.75003 10.0427 1.79154 9.88167 1.87133C9.71017 1.9565 9.5515 2.11517 9.233 2.43367L2.43367 9.233C2.09592 9.57017 1.92733 9.73875 1.83867 9.95342C1.75 10.1675 1.75 10.4061 1.75 10.8832V12.25H3.11675C3.59392 12.25 3.83192 12.25 4.04658 12.1613C4.26067 12.0727 4.42925 11.9035 4.767 11.5663Z" stroke="var(--stroke-0, white)" stroke-width="1.2" stroke-linecap="round" stroke-linejoin="round"/>
</g>
</svg>
