<svg preserveAspectRatio="none" width="100%" height="100%" overflow="visible" style="display: block;" viewBox="0 0 32 31" fill="none" xmlns="http://www.w3.org/2000/svg">
<g id="Frame 14476">
<g id="Vector">
<path d="M8.51125 3.26368C9.10181 1.13494 11.3062 -0.112006 13.435 0.478548L28.4986 4.6575C30.6274 5.24805 31.8743 7.45248 31.2838 9.58122L26.2975 27.5549C25.707 29.6836 23.5025 30.9305 21.3738 30.34L6.31014 26.161C4.1814 25.5705 2.93446 23.3661 3.52501 21.2373L8.51125 3.26368Z" fill="var(--fill-0, #515378)"/>
<path d="M2.03172 3.37857C2.03172 2.274 2.92715 1.37857 4.03172 1.37857H22.6796C23.7842 1.37857 24.6796 2.274 24.6796 3.37857V23.9958C24.6796 25.1004 23.7842 25.9958 22.6796 25.9958H4.03172C2.92715 25.9958 2.03172 25.1004 2.03172 23.9958V3.37857Z" fill="white"/>
<path d="M20.0687 16.7416C20.2422 16.9174 20.3395 17.1546 20.3395 17.4017C20.3395 17.6488 20.2422 17.8859 20.0687 18.0618C19.5961 18.6312 18.9725 19.0557 18.2695 19.2865C16.9718 19.4681 15.6493 19.3191 14.4246 18.8532C13.1999 18.3874 12.1126 17.6199 11.2636 16.6218C10.2668 15.7723 9.50047 14.6851 9.03548 13.4607C8.57049 12.2364 8.4219 10.9145 8.60346 9.6175C8.8352 8.9145 9.25952 8.29062 9.82819 7.81678C10.0043 7.64358 10.2413 7.54651 10.4883 7.54651C10.7353 7.54651 10.9724 7.64358 11.1484 7.81678L13.1189 9.78727C13.2942 9.96314 13.3927 10.2013 13.3927 10.4497C13.3927 10.698 13.2942 10.9362 13.1189 11.112L12.067 12.164C12.067 12.164 11.826 12.8355 13.4312 14.4376C15.0363 16.0398 15.7048 15.8018 15.7048 15.8018L16.7689 14.765C16.8557 14.6781 16.9589 14.6091 17.0724 14.5621C17.1859 14.515 17.3076 14.4908 17.4305 14.4908C17.5534 14.4908 17.6751 14.515 17.7886 14.5621C17.9021 14.6091 18.0053 14.6781 18.0921 14.765L20.0687 16.7416ZM25.9574 3.7894V23.1911C25.9574 23.6888 25.8594 24.1815 25.6689 24.6413C25.4785 25.101 25.1994 25.5188 24.8475 25.8706C24.4956 26.2225 24.0779 26.5017 23.6181 26.6921C23.1584 26.8825 22.6656 26.9805 22.168 26.9805H5.11569C4.61806 26.9805 4.1253 26.8825 3.66555 26.6921C3.2058 26.5017 2.78806 26.2225 2.43618 25.8706C2.0843 25.5188 1.80518 25.101 1.61474 24.6413C1.42431 24.1815 1.32629 23.6888 1.32629 23.1911V22.4333H0.75788C0.556878 22.4333 0.364108 22.3534 0.221978 22.2113C0.0798476 22.0691 0 21.8764 0 21.6754C0 21.4744 0.0798476 21.2816 0.221978 21.1395C0.364108 20.9973 0.556878 20.9175 0.75788 20.9175H1.32629V16.9765H0.75788C0.556878 16.9765 0.364108 16.8967 0.221978 16.7545C0.0798476 16.6124 0 16.4196 0 16.2186C0 16.0176 0.0798476 15.8249 0.221978 15.6827C0.364108 15.5406 0.556878 15.4608 0.75788 15.4608H1.32629V11.5198H0.75788C0.556878 11.5198 0.364108 11.4399 0.221978 11.2978C0.0798476 11.1557 0 10.9629 0 10.7619C0 10.5609 0.0798476 10.3681 0.221978 10.226C0.364108 10.0839 0.556878 10.004 0.75788 10.004H1.32629V6.06304H0.75788C0.556878 6.06304 0.364108 5.98319 0.221978 5.84106C0.0798476 5.69893 0 5.50616 0 5.30516C0 5.10416 0.0798476 4.91139 0.221978 4.76926C0.364108 4.62713 0.556878 4.54728 0.75788 4.54728H1.32629V3.7894C1.32629 2.78439 1.72553 1.82054 2.43618 1.10989C3.14683 0.399239 4.11068 0 5.11569 0H22.168C23.173 0 24.1369 0.399239 24.8475 1.10989C25.5582 1.82054 25.9574 2.78439 25.9574 3.7894ZM24.4416 3.7894C24.4416 3.18639 24.2021 2.60809 23.7757 2.18169C23.3493 1.7553 22.771 1.51576 22.168 1.51576H5.11569C4.51268 1.51576 3.93438 1.7553 3.50799 2.18169C3.08159 2.60809 2.84205 3.18639 2.84205 3.7894V4.54728H3.41046C3.61146 4.54728 3.80423 4.62713 3.94636 4.76926C4.08849 4.91139 4.16834 5.10416 4.16834 5.30516C4.16834 5.50616 4.08849 5.69893 3.94636 5.84106C3.80423 5.98319 3.61146 6.06304 3.41046 6.06304H2.84205V10.004H3.41046C3.61146 10.004 3.80423 10.0839 3.94636 10.226C4.08849 10.3681 4.16834 10.5609 4.16834 10.7619C4.16834 10.9629 4.08849 11.1557 3.94636 11.2978C3.80423 11.4399 3.61146 11.5198 3.41046 11.5198H2.84205V15.4608H3.41046C3.61146 15.4608 3.80423 15.5406 3.94636 15.6827C4.08849 15.8249 4.16834 16.0176 4.16834 16.2186C4.16834 16.4196 4.08849 16.6124 3.94636 16.7545C3.80423 16.8967 3.61146 16.9765 3.41046 16.9765H2.84205V20.9175H3.41046C3.61146 20.9175 3.80423 20.9973 3.94636 21.1395C4.08849 21.2816 4.16834 21.4744 4.16834 21.6754C4.16834 21.8764 4.08849 22.0691 3.94636 22.2113C3.80423 22.3534 3.61146 22.4333 3.41046 22.4333H2.84205V23.1911C2.84205 23.7941 3.08159 24.3725 3.50799 24.7988C3.93438 25.2252 4.51268 25.4648 5.11569 25.4648H22.168C22.771 25.4648 23.3493 25.2252 23.7757 24.7988C24.2021 24.3725 24.4416 23.7941 24.4416 23.1911V3.7894Z" fill="var(--fill-0, #515378)"/>
</g>
</g>
</svg>
