<svg width="13" height="13" viewBox="0 0 13 13" fill="none" xmlns="http://www.w3.org/2000/svg">
<path d="M12.2012 6.5C12.2012 9.81371 9.51488 12.5 6.20117 12.5C2.88746 12.5 0.201172 9.81371 0.201172 6.5C0.201172 3.18629 2.88746 0.5 6.20117 0.5C9.51488 0.5 12.2012 3.18629 12.2012 6.5ZM2.00117 6.5C2.00117 8.8196 3.88158 10.7 6.20117 10.7C8.52077 10.7 10.4012 8.8196 10.4012 6.5C10.4012 4.1804 8.52077 2.3 6.20117 2.3C3.88158 2.3 2.00117 4.1804 2.00117 6.5Z" fill="#D0EBFF"/>
<path d="M7.42271 11.4516C7.54176 11.9341 7.24654 12.4291 6.75158 12.4747C5.79875 12.5625 4.8341 12.4214 3.93975 12.0575C2.76612 11.58 1.7738 10.7431 1.10502 9.66689C0.436236 8.59069 0.125324 7.33039 0.216843 6.06663C0.308362 4.80286 0.797614 3.60051 1.61448 2.6319C2.43134 1.66328 3.53388 0.978131 4.76407 0.674646C5.99427 0.371161 7.28896 0.464919 8.46259 0.942484C9.63622 1.42005 10.6285 2.2569 11.2973 3.3331C11.807 4.15321 12.1088 5.08021 12.1831 6.03419C12.2217 6.52975 11.7836 6.90427 11.2879 6.86837C10.7921 6.83246 10.4293 6.39766 10.3589 5.90561C10.277 5.33293 10.0772 4.78002 9.76848 4.28317C9.30033 3.52983 8.60571 2.94403 7.78417 2.60974C6.96262 2.27544 6.05634 2.20981 5.1952 2.42225C4.33407 2.63469 3.56229 3.1143 2.99049 3.79233C2.41868 4.47036 2.07621 5.312 2.01214 6.19664C1.94808 7.08128 2.16572 7.96349 2.63386 8.71683C3.10201 9.47017 3.79664 10.056 4.61818 10.3903C5.16001 10.6107 5.7387 10.7144 6.31699 10.6984C6.81385 10.6847 7.30365 10.969 7.42271 11.4516Z" fill="#339AF0"/>
</svg>
