<svg preserveAspectRatio="none" width="100%" height="100%" overflow="visible" style="display: block;" viewBox="0 0 15 15" fill="none" xmlns="http://www.w3.org/2000/svg">
<path id="Icon" d="M7.66667 1.66667H10.4667C11.5868 1.66667 12.1468 1.66667 12.5746 1.88465C12.951 2.0764 13.2569 2.38236 13.4487 2.75869C13.6667 3.18651 13.6667 3.74656 13.6667 4.86667V10.4667C13.6667 11.5868 13.6667 12.1468 13.4487 12.5746C13.2569 12.951 12.951 13.2569 12.5746 13.4487C12.1468 13.6667 11.5868 13.6667 10.4667 13.6667H4.86667C3.74656 13.6667 3.18651 13.6667 2.75869 13.4487C2.38236 13.2569 2.0764 12.951 1.88465 12.5746C1.66667 12.1468 1.66667 11.5868 1.66667 10.4667V7.66667M5 8.33333V11M10.3333 7V11M7.66667 4.33333V11M1 3L3 1M3 1L5 3M3 1L3 5" stroke="var(--stroke-0, #343A40)" stroke-width="1.2" stroke-linecap="round" stroke-linejoin="round"/>
</svg>
