<svg preserveAspectRatio="none" width="100%" height="100%" overflow="visible" style="display: block;" viewBox="0 0 7 13" fill="none" xmlns="http://www.w3.org/2000/svg">
<g id="Group 193">
<path id="Vector (Stroke)" fill-rule="evenodd" clip-rule="evenodd" d="M0.146447 3.85355C0.341709 4.04882 0.658291 4.04882 0.853553 3.85355L3.5 1.20711L6.14645 3.85355C6.34171 4.04882 6.65829 4.04882 6.85355 3.85355C7.04882 3.65829 7.04882 3.34171 6.85355 3.14645L3.85355 0.146447C3.65829 -0.0488155 3.34171 -0.0488155 3.14645 0.146447L0.146447 3.14645C-0.0488155 3.34171 -0.0488155 3.65829 0.146447 3.85355Z" fill="var(--fill-0, #868E96)"/>
<path id="Vector (Stroke)_2" fill-rule="evenodd" clip-rule="evenodd" d="M0.146447 9.14645C0.341709 8.95118 0.658291 8.95118 0.853553 9.14645L3.5 11.7929L6.14645 9.14645C6.34171 8.95118 6.65829 8.95118 6.85355 9.14645C7.04882 9.34171 7.04882 9.65829 6.85355 9.85355L3.85355 12.8536C3.65829 13.0488 3.34171 13.0488 3.14645 12.8536L0.146447 9.85355C-0.0488155 9.65829 -0.0488155 9.34171 0.146447 9.14645Z" fill="var(--fill-0, #868E96)"/>
</g>
</svg>
