<svg width="16" height="17" viewBox="0 0 16 17" fill="none" xmlns="http://www.w3.org/2000/svg">
<path d="M3.33398 2.5L1.33398 4.5M14.6673 4.5L12.6673 2.5M4.00065 13.1667L2.66732 14.5M12.0007 13.1667L13.334 14.5M8.00065 6.5V9.16667L9.33398 10.5M8.00065 14.5C9.41514 14.5 10.7717 13.9381 11.7719 12.9379C12.7721 11.9377 13.334 10.5812 13.334 9.16667C13.334 7.75218 12.7721 6.39562 11.7719 5.39543C10.7717 4.39524 9.41514 3.83333 8.00065 3.83333C6.58616 3.83333 5.22961 4.39524 4.22941 5.39543C3.22922 6.39562 2.66732 7.75218 2.66732 9.16667C2.66732 10.5812 3.22922 11.9377 4.22941 12.9379C5.22961 13.9381 6.58616 14.5 8.00065 14.5Z" stroke="#868E96" stroke-width="1.33333" stroke-linecap="round" stroke-linejoin="round"/>
</svg>
