<svg width="34" height="34" viewBox="0 0 34 34" fill="none" xmlns="http://www.w3.org/2000/svg">
<rect width="23.5385" height="23.5385" rx="6" transform="matrix(-0.866025 -0.5 -0.5 0.866025 34 12.6934)" fill="#515378"/>
<rect width="23.5385" height="23.5385" rx="5" transform="matrix(-1 0 0 1 24.4102 7.89844)" fill="#FBFBFB"/>
<path d="M19.8047 10.3984C20.2702 10.3984 20.6475 10.7757 20.6475 11.2412C20.6475 11.7066 20.2702 12.0839 19.8047 12.0839H18.962C18.4965 12.0839 18.1193 11.7066 18.1193 11.2412C18.1193 10.7757 18.4965 10.3984 18.962 10.3984H19.8047Z" fill="#515378"/>
<path fill-rule="evenodd" clip-rule="evenodd" d="M19.3831 7.02734C22.6411 7.02734 25.2822 9.66848 25.2822 12.9265V26.4102C25.2822 29.6683 22.6411 32.3094 19.3831 32.3094H10.113C9.64755 32.3094 9.27026 31.9321 9.27026 31.4667C9.27026 31.0012 9.64755 30.6239 10.113 30.6239H19.3831C21.7102 30.6239 23.5968 28.7374 23.5968 26.4102V15.0333H1.68565V22.1966C1.68565 22.662 1.30835 23.0393 0.842911 23.0393C0.377468 23.0393 0.000175476 22.662 0.000175476 22.1966V12.9265C0.000175476 9.66848 2.64131 7.02734 5.89932 7.02734H19.3831ZM1.68565 13.3479V12.9265C1.68565 10.5994 3.57219 8.71281 5.89932 8.71281H19.3831C21.7102 8.71281 23.5968 10.5994 23.5968 12.9265V13.3479H1.68565Z" fill="#515378"/>
<path fill-rule="evenodd" clip-rule="evenodd" d="M8.1926 24.116C7.97842 23.9018 7.66577 23.819 7.37367 23.8992L1.62496 25.4766C1.33548 25.556 1.11013 25.7834 1.03331 26.0736C0.956457 26.3638 1.0398 26.6729 1.25205 26.8852L2.74495 28.3781C2.7227 28.3962 2.70117 28.4156 2.68048 28.4363L0.445844 30.6709C0.116714 31 0.116714 31.5336 0.445844 31.8627C0.774932 32.1919 1.30855 32.1919 1.63764 31.8627L3.87228 29.6281C3.89301 29.6074 3.91239 29.5859 3.93051 29.5636L5.42337 31.0565C5.63566 31.2688 5.94477 31.3521 6.23497 31.2753C6.52517 31.1984 6.75258 30.9731 6.83201 30.6836L8.40939 24.9349C8.48954 24.6428 8.40678 24.3302 8.1926 24.116ZM5.59019 28.8397L3.4689 26.7184L6.39235 25.9162L5.59019 28.8397Z" fill="#515378"/>
</svg>
