<svg width="33" height="32" viewBox="0 0 33 32" fill="none" xmlns="http://www.w3.org/2000/svg">
<rect x="11.3027" y="0.615234" width="22.0209" height="22.0209" rx="2" transform="rotate(19.6544 11.3027 0.615234)" fill="#515378"/>
<rect x="3.771" y="7.29492" width="20.4708" height="19.9321" rx="1" fill="white"/>
<path d="M6.35914 18.6669C2.85029 18.6669 0 21.5172 0 25.0261C0 28.5349 2.85029 31.3852 6.35914 31.3852C9.868 31.3852 12.7183 28.5349 12.7183 25.0261C12.7183 21.5172 9.868 18.6669 6.35914 18.6669ZM6.35914 29.8903C3.68035 29.8903 1.49598 27.706 1.49598 25.0271C1.49598 22.3484 3.68027 20.164 6.35914 20.164C9.03801 20.164 11.2223 22.3483 11.2223 25.0271C11.2223 27.7059 9.03801 29.8903 6.35914 29.8903ZM9.61346 22.7597C9.9049 23.0512 9.9049 23.5225 9.61346 23.8151L6.14124 27.2873C5.99183 27.4367 5.80455 27.504 5.60988 27.504C5.41522 27.504 5.22794 27.4293 5.07853 27.2873L3.09626 25.305C2.80482 25.0136 2.80482 24.5422 3.09626 24.2497C3.3877 23.9582 3.85907 23.9582 4.15158 24.2497L5.61093 25.7017L8.55172 22.7609C8.84316 22.4694 9.31453 22.4694 9.60705 22.7609L9.61346 22.7597ZM23.1937 5.94729H5.23648C4.00231 5.94729 2.99224 6.95736 2.99224 8.19154V17.1696C2.99224 17.581 3.32893 17.9177 3.74031 17.9177C4.15169 17.9177 4.48838 17.581 4.48838 17.1696V8.19154C4.48838 7.78016 4.82507 7.44346 5.23645 7.44346H8.97803V14.9253C8.97803 15.2241 9.15795 15.5018 9.44204 15.6134C9.53148 15.6513 9.62932 15.6734 9.72613 15.6734C9.92078 15.6734 10.1154 15.5987 10.2575 15.4566L11.9704 13.7437L13.6833 15.4566C13.9748 15.748 14.4461 15.748 14.7386 15.4566L16.4516 13.7437L18.1645 15.4566C18.3065 15.5987 18.5012 15.6734 18.6958 15.6734C18.7926 15.6734 18.8905 15.6586 18.9799 15.6134C19.2566 15.5008 19.4439 15.2241 19.4439 14.9253L19.445 7.44346H23.1866C23.5979 7.44346 23.9346 7.78016 23.9346 8.19154V26.1487C23.9346 26.5601 23.5979 26.8968 23.1866 26.8968H14.2085C13.7971 26.8968 13.4604 27.2335 13.4604 27.6449C13.4604 28.0563 13.7971 28.3929 14.2085 28.3929H23.1866C24.4207 28.3929 25.4308 27.3829 25.4308 26.1487V8.19151C25.4308 6.95734 24.4207 5.94727 23.1866 5.94727L23.1937 5.94729ZM17.9561 13.1231L16.9913 12.1583C16.6999 11.8669 16.2285 11.8669 15.936 12.1583L14.223 13.8712L12.5101 12.1583C12.2187 11.8669 11.7473 11.8669 11.4548 12.1583L10.49 13.1231L10.4889 7.44355H17.9707V13.122L17.9561 13.1231ZM18.7042 25.4007C18.2928 25.4007 17.9561 25.064 17.9561 24.6527C17.9561 24.2413 18.2928 23.9046 18.7042 23.9046H21.6964C22.1078 23.9046 22.4445 24.2413 22.4445 24.6527C22.4445 25.064 22.1078 25.4007 21.6964 25.4007H18.7042Z" fill="#515378"/>
</svg>
