<svg preserveAspectRatio="none" width="100%" height="100%" overflow="visible" style="display: block;" viewBox="0 0 16 16" fill="none" xmlns="http://www.w3.org/2000/svg">
<g id="eye">
<path id="Icon" d="M10.1024 12.2708C9.46244 12.5168 8.76055 12.6667 8.00027 12.6667C4.59693 12.6667 2.36369 9.66344 1.61341 8.47545C1.52262 8.33169 1.47723 8.25981 1.45182 8.14894C1.43273 8.06567 1.43273 7.93433 1.45182 7.85106C1.47723 7.74019 1.52262 7.66831 1.61341 7.52455C2.36369 6.33656 4.59693 3.33333 8.00027 3.33333C11.4036 3.33333 13.6369 6.33656 14.3871 7.52455C14.4779 7.66831 14.5233 7.74019 14.5487 7.85106C14.5678 7.93433 14.5678 8.06567 14.5487 8.14894C14.5233 8.25981 14.4779 8.33169 14.3871 8.47545C14.059 8.99493 13.6168 9.7271 12.7478 10.5379" stroke="var(--stroke-0, #343A40)" stroke-width="1.2" stroke-linecap="round" stroke-linejoin="round"/>
<path id="Icon_2" d="M12.5696 12.6196L9.7181 9.76808M10.438 8.03736C10.438 9.39077 9.3408 10.4879 7.98739 10.4879C6.63397 10.4879 5.53681 9.39077 5.53681 8.03736C5.53681 6.68394 6.63397 5.58678 7.98739 5.58678C9.3408 5.58678 10.438 6.68394 10.438 8.03736Z" stroke="var(--stroke-0, #343A40)" stroke-width="1.2" stroke-linecap="round" stroke-linejoin="round"/>
</g>
</svg>
