<svg preserveAspectRatio="none" width="100%" height="100%" overflow="visible" style="display: block;" viewBox="0 0 15 14" fill="none" xmlns="http://www.w3.org/2000/svg">
<path id="Icon" d="M3 1L1 3M14.3333 3L12.3333 1M3.66667 11.6667L2.33333 13M11.6667 11.6667L13 13M7.66667 5V7.66667L9 9M7.66667 13C9.08115 13 10.4377 12.4381 11.4379 11.4379C12.4381 10.4377 13 9.08115 13 7.66667C13 6.25218 12.4381 4.89562 11.4379 3.89543C10.4377 2.89524 9.08115 2.33333 7.66667 2.33333C6.25218 2.33333 4.89562 2.89524 3.89543 3.89543C2.89524 4.89562 2.33333 6.25218 2.33333 7.66667C2.33333 9.08115 2.89524 10.4377 3.89543 11.4379C4.89562 12.4381 6.25218 13 7.66667 13Z" stroke="var(--stroke-0, #868E96)" stroke-width="1.33333" stroke-linecap="round" stroke-linejoin="round"/>
</svg>
