<svg width="33" height="30" viewBox="0 0 33 30" fill="none" xmlns="http://www.w3.org/2000/svg">
<path d="M20.7772 6.09394L5.08837 5.66992L3.8163 6.09394L3.39228 15.4224L2.12021 15.8465L0.848145 17.1185L1.27217 27.2951L2.96826 28.9912H21.6252L24.5934 27.7191L24.1694 16.6945H22.0493V10.7582L20.7772 6.09394Z" fill="#FBFBFB"/>
<path d="M6.2002 4.54883H19.2549C21.1559 4.54887 22.6943 6.0873 22.6943 7.98828V15.207L22.8623 15.1865C23.2686 15.1369 23.6845 15.1867 24.0732 15.3691C24.8302 15.723 25.3045 16.4536 25.3047 17.2949V26.25C25.3047 28.151 23.7662 29.6895 21.8652 29.6895H3.58984C1.68884 29.6895 0.150391 28.151 0.150391 26.25V17.2949C0.150552 16.4665 0.625356 15.7228 1.38184 15.3691C1.77309 15.1856 2.18736 15.1253 2.58789 15.1855L2.76074 15.2119V7.98828C2.76074 6.08727 4.29919 4.54883 6.2002 4.54883ZM13.9805 19.5664C13.2818 18.8677 12.1567 18.8677 11.458 19.5664L3.27246 27.751L3.06836 27.9561L3.35352 28.0049C3.38546 28.0104 3.40661 28.0173 3.44727 28.0273C3.48512 28.0367 3.53145 28.0459 3.58789 28.0459H21.8506C21.9129 28.0459 21.9674 28.031 22.001 28.0215C22.0415 28.01 22.0525 28.0069 22.0596 28.0068H22.4219L22.166 27.751L13.9805 19.5664ZM2.50293 16.8799C2.32474 16.7919 2.15665 16.8404 2.08398 16.8691L2.07227 16.874L2.06152 16.8809C1.98645 16.9262 1.80674 17.0434 1.80664 17.3086V26.2637C1.80664 26.326 1.82248 26.3805 1.83203 26.4141C1.84351 26.4544 1.84563 26.4656 1.8457 26.4727V26.835L2.10254 26.5791L7.58398 21.0977L7.45703 20.9922L2.58789 16.9326L2.58008 16.9268L2.50293 16.8799ZM23.2852 16.8379C23.1723 16.8067 23.0138 16.8031 22.8662 16.9326L17.9961 20.9922L17.8701 21.0977L23.5566 26.7842L23.6055 26.498C23.611 26.4662 23.6178 26.445 23.6279 26.4043C23.6373 26.3664 23.6465 26.3202 23.6465 26.2637V17.3086C23.6464 17.043 23.4665 16.9261 23.3916 16.8809V16.8799L23.3818 16.875L23.2852 16.8379ZM6.2002 6.20703C5.22329 6.21484 4.43359 7.00953 4.43359 7.98828V16.3086L4.4873 16.3535L8.66406 19.8389L8.76953 19.9268L8.86621 19.8291L10.3018 18.3936C11.6396 17.0558 13.8302 17.0558 15.168 18.3936L16.6035 19.8291L16.7002 19.9268L16.8057 19.8389L20.9824 16.3535L21.0361 16.3086V7.98828C21.0361 7.00471 20.2384 6.20707 19.2549 6.20703H6.2002Z" fill="#515378" stroke="#FBFBFB" stroke-width="0.3"/>
<path d="M15.0913 9.34668C15.3923 9.04701 15.8779 9.02891 16.2007 9.29102L16.2632 9.34668C16.5829 9.66763 16.5825 10.1991 16.2632 10.5186L12.3335 14.4482C12.1671 14.6146 11.9581 14.6924 11.7476 14.6924C11.5383 14.6923 11.3288 14.6144 11.1626 14.4482L9.19092 12.4766H9.18994C8.89079 12.1755 8.87322 11.6897 9.13525 11.3672L9.19092 11.3047C9.51185 10.9851 10.0434 10.9855 10.3628 11.3047L11.7476 12.6895L11.854 12.584L15.0913 9.34668Z" fill="#515378" stroke="#FBFBFB" stroke-width="0.3"/>
<path d="M15.1366 2.82836C15.982 1.36657 17.8668 0.890243 19.3052 1.77487L30.0163 8.36238C31.4276 9.23035 31.868 11.0781 31.0001 12.4894L28.0034 17.3618L25.7193 21.0758L24.5 22.6602L24.5 21.1602L24.1226 17.7622C24.0462 17.0738 23.626 16.4712 23.0065 16.1614C22.3799 15.8482 21.9577 15.2355 21.888 14.5385L21 5.6582L13.5 5.6582L15.1366 2.82836Z" fill="#515378"/>
</svg>
