<svg preserveAspectRatio="none" width="100%" height="100%" overflow="visible" style="display: block;" viewBox="0 0 16 16" fill="none" xmlns="http://www.w3.org/2000/svg">
<g id="maximize-02">
<g id="Group 195">
<path id="Icon" d="M10.2943 3.93535C10.2943 3.08001 10.2913 2.99405 10.1249 2.66735C9.97846 2.37998 9.74482 2.14634 9.45745 1.99991C9.13075 1.83345 8.70308 1.83345 7.84773 1.83345H4.58959C3.73425 1.83345 3.30658 1.83345 2.97988 1.99991C2.69251 2.14634 2.45887 2.37998 2.31245 2.66735C2.14598 2.99405 2.14598 3.42172 2.14598 4.27706V9.57154C2.14598 10.4269 2.14598 10.8546 2.31245 11.1813C2.45887 11.4686 2.69251 11.7023 2.97988 11.8487C3.30658 12.0151 3.73425 12.0151 4.58959 12.0151H5.20049M5 6.41522H4.18232M5.20049 8.45156H4.18232M5.53907 4.37888H4.18232" stroke="var(--stroke-0, #48948A)" stroke-linecap="round" stroke-linejoin="round"/>
</g>
<path id="Icon_2" d="M13.3449 6.42846C13.3449 5.57312 13.3449 5.14544 13.1785 4.81875C13.032 4.53137 12.7984 4.29773 12.511 4.15131C12.1843 3.98485 11.7567 3.98485 10.9013 3.98485H7.64318C6.78784 3.98485 6.36017 3.98485 6.03347 4.15131C5.7461 4.29773 5.51246 4.53137 5.36603 4.81875C5.19957 5.14544 5.19957 5.57312 5.19957 6.42846V11.7229C5.19957 12.5783 5.19957 13.006 5.36603 13.3327C5.51246 13.62 5.7461 13.8537 6.03347 14.0001C6.36017 14.1665 6.78784 14.1665 7.64318 14.1665M10.2904 8.56661H7.23591M8.25408 10.603H7.23591M11.3086 6.53027H7.23591" stroke="var(--stroke-0, #48948A)" stroke-linecap="round" stroke-linejoin="round"/>
<path id="Icon_3" d="M13.4152 10.3684L12.1361 9.3304M9.27224 14.1665L10.2412 13.9556C10.3596 13.9298 10.4188 13.917 10.4728 13.893C10.5208 13.8718 10.5657 13.8441 10.6063 13.8109C10.6521 13.7734 10.6902 13.7263 10.7666 13.6323L14.1938 9.40909C14.4804 9.05587 14.4264 8.53715 14.0732 8.2505C13.72 7.96385 13.2013 8.01782 12.9146 8.37105L9.48743 12.5942C9.41109 12.6883 9.37292 12.7353 9.34564 12.7878C9.32144 12.8344 9.30364 12.884 9.29274 12.9353C9.28044 12.9932 9.28002 13.0538 9.27917 13.1749L9.27224 14.1665Z" stroke="var(--stroke-0, #48948A)" stroke-width="0.8" stroke-linecap="round" stroke-linejoin="round"/>
</g>
</svg>
