<svg width="33" height="28" viewBox="0 0 33 28" fill="none" xmlns="http://www.w3.org/2000/svg">
<path d="M1.34197 9.90186C0.644257 7.87599 1.6668 5.66014 3.661 4.87648L6.41171 3.79555L6.41174 7.16972L6.42018 13.9814C6.42048 14.2197 6.44207 14.4576 6.4847 14.692L6.96278 17.3215C7.15031 18.3528 7.85501 19.2153 8.82831 19.6046C9.18809 19.7485 9.57203 19.8225 9.95952 19.8225L13.6281 19.8225C14.3843 19.8225 15.125 20.0368 15.7644 20.4407L16.1208 20.6659L17.5892 21.5469C18.0047 21.7962 18.327 22.1747 18.507 22.6246C18.6992 23.1052 18.1862 23.5637 17.7302 23.3188L16.3267 22.5652C15.3443 22.0376 14.1862 21.9441 13.1318 22.3072L10.1935 23.3192C8.10473 24.0386 5.82832 22.9285 5.10896 20.8397L1.34197 9.90186Z" fill="#515378"/>
<path d="M31.6093 7.27915C31.2832 7.2792 31.0189 7.54352 31.0189 7.86957V16.3677C31.0189 17.9263 29.7505 19.1947 28.1919 19.1947H23.3795C22.4929 19.1947 21.6527 19.623 21.1313 20.34L19.5071 22.5745C19.3142 22.84 18.8831 22.8386 18.6902 22.5745L17.066 20.34C16.5446 19.623 15.7058 19.1947 14.8191 19.1947L10.0067 19.1961C8.4482 19.1961 7.17974 17.9276 7.17974 16.3691L7.17837 4.17977C7.17837 2.62123 8.44683 1.35277 10.0054 1.35277H19.3101C19.6358 1.35277 19.8999 1.0887 19.8999 0.762964C19.8999 0.437257 19.6359 0.173207 19.3102 0.173162L10.0068 0.171875C7.79689 0.171875 5.99902 1.96988 5.99902 4.17963V16.3675C5.99902 18.5774 7.79703 20.3753 10.0068 20.3753H14.8192C15.3296 20.3753 15.8126 20.6216 16.1123 21.0348L17.7365 23.2693C18.0567 23.7099 18.5547 23.9631 19.0993 23.9631C19.644 23.9631 20.142 23.71 20.4622 23.2693L22.0864 21.0348C22.3861 20.623 22.8705 20.3753 23.3809 20.3753H28.1933C30.4032 20.3753 32.201 18.5773 32.201 16.3675L32.1998 7.86948C32.1997 7.5434 31.9353 7.2791 31.6093 7.27915Z" fill="#515378"/>
<path d="M23.8161 6.00704H30.4101C31.3857 6.00704 32.1711 5.21204 32.1711 4.23639V1.76105C32.1711 0.785402 31.3857 0 30.4101 0H23.8161C22.8404 0 22.0454 0.785437 22.0454 1.76105V4.23639C22.0454 5.21204 22.8404 6.00704 23.8161 6.00704ZM29.5879 0.875884C30.2571 0.875884 30.7989 1.42596 30.7989 2.09509C30.7989 2.76423 30.257 3.31431 29.5879 3.31431C28.9106 3.31431 28.3687 2.76423 28.3687 2.09509C28.3687 1.42596 28.9106 0.875884 29.5879 0.875884Z" fill="#515378"/>
<path d="M22.5918 8.79965C22.9664 8.63106 23.0353 8.12855 22.7198 7.8654L22.6529 7.80955C22.5431 7.71794 22.4042 7.67085 22.2619 7.65728C21.2882 7.56447 20.4891 6.86505 20.2479 5.94284C20.1655 5.62773 19.9091 5.35938 19.5834 5.35938C19.2577 5.35938 18.9884 5.62547 19.0431 5.94657C19.3166 7.55371 20.6931 8.79008 22.3633 8.84663C22.442 8.8493 22.52 8.83195 22.5918 8.79965Z" fill="#515378"/>
<path d="M16.9882 6.45006C16.9503 6.12655 16.6899 5.86133 16.3642 5.86133C16.0385 5.86133 15.7715 6.1262 15.8021 6.45047C16.0815 9.40358 18.439 11.7612 21.3922 12.0406C21.7165 12.0713 21.9813 11.8043 21.9813 11.4786C21.9813 11.1528 21.7161 10.8924 21.3926 10.8545C19.0899 10.5848 17.2579 8.75292 16.9882 6.45006Z" fill="#515378"/>
</svg>
