<svg width="32" height="34" viewBox="0 0 32 34" fill="none" xmlns="http://www.w3.org/2000/svg">
<path d="M31.4053 12.9922L27.9053 7.49219L26.9053 6.99219L27.4053 8.99219L28.9053 13.4922V15.4922L15.9053 31.4922L18.9053 32.9922L21.4053 33.4922L23.4053 31.4922L30.4053 16.4922L31.4053 12.9922Z" fill="#515378"/>
<path d="M31.4568 11.8441L28.4359 7.19016C30.1144 4.79747 30.1756 1.94483 28.5071 0.648528C26.7347 -0.728927 23.6768 0.160475 21.688 2.62867C21.5499 2.79648 21.4346 2.97547 21.3122 3.15449L15.9567 2.65527C14.7638 2.54619 13.605 3.03563 12.859 3.95718L0.761319 18.9665C-0.447318 20.4642 -0.188235 22.6499 1.33502 23.837L11.7599 31.9463C12.5116 32.5322 13.4383 32.7811 14.3437 32.679C14.7082 32.6357 15.0669 32.5378 15.4143 32.3812C15.5638 32.3154 15.7018 32.2399 15.8285 32.1588L19.2637 33.6999C19.8431 33.96 20.478 34.0467 21.0916 33.9768C21.6553 33.911 22.1963 33.7167 22.6647 33.3853C23.1729 33.044 23.5758 32.5714 23.8292 32.0134L31.6818 15.0785C32.1744 14.0297 32.0918 12.8202 31.4568 11.8441ZM27.8509 1.46225C29.0111 2.36282 28.9499 4.38635 27.8124 6.23503L27.3099 5.46452C26.9896 4.9653 26.5369 4.56395 26.0116 4.29824C25.9404 4.25629 25.8578 4.21853 25.7738 4.18497C25.2215 3.7291 24.5538 3.45219 23.8463 3.39348L22.5095 3.26902C24.1395 1.24553 26.5371 0.437204 27.8509 1.46225ZM21.8645 4.24508L23.7537 4.41849C24.2676 4.46743 24.7473 4.66741 25.1402 4.99325C25.1459 4.99884 25.1573 5.00444 25.163 5.01562C25.1744 5.02681 25.1858 5.04219 25.1958 5.05338C25.499 5.32467 25.7311 5.67708 25.8634 6.06722L26.4713 7.83482C25.9474 8.30189 25.3666 8.67528 24.7758 8.91438C24.7758 8.82768 24.7815 8.73539 24.7701 8.64868C24.726 8.26832 24.605 7.90613 24.4228 7.5747C24.4228 7.56911 24.4228 7.56911 24.4171 7.56351C24.3345 7.41668 24.2349 7.28104 24.1295 7.14538C24.1124 7.123 24.1025 7.10203 24.0854 7.07965C23.9587 6.92723 23.8092 6.79158 23.6498 6.66714C22.9266 6.10358 22.0211 5.93436 21.1755 6.10777C21.2794 5.50924 21.5115 4.86878 21.8645 4.24508ZM21.5613 7.08247C22.0581 7.02794 22.5778 7.15239 22.9963 7.48382C23.543 7.90754 23.7921 8.56339 23.7195 9.20388C23.0177 9.29058 22.4055 9.15493 21.9414 8.79694C21.4716 8.43337 21.2182 7.85861 21.1456 7.18597C21.2851 7.13003 21.4232 7.09786 21.5613 7.08247ZM21.2908 9.59821C21.8375 10.0219 22.5051 10.2331 23.2454 10.2485C22.666 10.8945 21.6667 11.0735 20.8879 10.6988C20.7726 10.6442 20.6616 10.5743 20.5619 10.4974C20.4566 10.4163 20.3626 10.324 20.28 10.2317C20.2573 10.2051 20.2416 10.1771 20.2245 10.1506C20.169 10.0751 20.1092 9.99815 20.0651 9.91704C20.0537 9.89467 20.048 9.87369 20.038 9.85132C19.9939 9.75902 19.9498 9.67232 19.917 9.57443C19.9113 9.55205 19.9056 9.52549 19.8999 9.50451C19.8444 9.30314 19.8174 9.09199 19.8288 8.88081V8.84305C19.8345 8.73957 19.8558 8.64168 19.8843 8.54519C19.89 8.52282 19.89 8.50184 19.8957 8.47947C19.9227 8.38717 19.9626 8.30047 20.001 8.21377C20.0124 8.1872 20.0238 8.15364 20.0338 8.12707C20.0779 8.04036 20.1334 7.96485 20.1932 7.88234C20.3797 8.57317 20.7442 9.1703 21.2908 9.59821ZM15.4484 31.1602C15.3104 31.2693 15.1552 31.3616 14.9786 31.4371C14.1344 31.8217 13.1451 31.7084 12.4105 31.1336L1.9925 23.0283C0.921954 22.1934 0.739733 20.6636 1.58961 19.605L13.6833 4.60142C14.0975 4.08681 14.694 3.76658 15.346 3.68965C15.5169 3.66727 15.6877 3.66727 15.86 3.68405L20.73 4.13992C20.3271 4.96499 20.1065 5.79984 20.0723 6.58016C19.8403 6.74237 19.6139 6.92696 19.4317 7.15492C18.3996 8.43446 18.6202 10.2957 19.9171 11.3041C20.0766 11.4285 20.2431 11.532 20.4197 11.6187C20.9435 11.8844 21.5358 11.9879 22.1365 11.9222C22.733 11.8523 23.2853 11.6187 23.7381 11.2383C23.8875 11.1139 24.0256 10.9726 24.1523 10.8146C24.279 10.658 24.3901 10.4888 24.4783 10.3154C24.4897 10.293 24.4954 10.2664 24.5054 10.2399C24.5324 10.1853 24.5495 10.1266 24.5765 10.0665C24.6264 10.0497 24.6762 10.0441 24.726 10.0287C25.4606 9.80077 26.1838 9.40501 26.8415 8.88481L28.4046 13.4353C28.6694 14.2212 28.5199 15.0784 27.9961 15.7245L15.9024 30.728C15.7629 30.8986 15.6193 31.0344 15.4484 31.1602ZM30.7335 14.6434L22.8754 31.5823C22.6989 31.9668 22.417 32.2927 22.0639 32.5318C21.3792 33.0086 20.4738 33.0912 19.7008 32.7485L16.6913 31.4033C16.697 31.3921 16.7083 31.3865 16.714 31.3767L28.8077 16.3732C29.5537 15.4516 29.7686 14.2308 29.3871 13.1134L27.6702 8.11835L27.7371 8.05262L30.5644 12.403C31.01 13.0812 31.0695 13.9163 30.7335 14.6434Z" fill="#515378"/>
<path d="M22.2568 15.4247L14.877 9.4205C14.0492 8.74687 12.7582 8.90068 12.1023 9.75232L4.42723 19.7111C4.0986 20.137 3.95439 20.6667 4.01261 21.2022C4.07224 21.7377 4.3357 22.2247 4.74892 22.5608L12.123 28.5607C12.5473 28.9081 13.0756 29.0463 13.5748 28.9865C14.0754 28.9253 14.5593 28.6718 14.8977 28.2303L22.5728 18.2715C22.9014 17.8457 23.0456 17.3159 22.9874 16.7804C22.9292 16.2421 22.67 15.7623 22.2568 15.4247ZM21.7728 17.6179L14.0977 27.5767C13.7746 27.9968 13.1728 28.068 12.7638 27.7362L5.38402 21.7334C5.18434 21.5739 5.06093 21.3418 5.02903 21.0812C5.00269 20.822 5.07202 20.567 5.22871 20.3634L12.9038 10.4086C13.0591 10.2035 13.2851 10.0768 13.5389 10.044C13.7913 10.0169 14.0395 10.0881 14.2378 10.2491L21.6175 16.2475C21.8172 16.407 21.9406 16.6391 21.9725 16.8997C22.003 17.1589 21.9282 17.4124 21.7729 17.6175L21.7728 17.6179Z" fill="#515378"/>
<path d="M14.7707 12.1255C14.5667 11.9264 14.2677 11.9684 14.1035 12.2219C13.9393 12.4691 13.9739 12.8315 14.1831 13.0306L19.2293 17.875C19.3332 17.9714 19.4577 18.0134 19.5783 17.9963C19.6976 17.9776 19.8118 17.9061 19.8965 17.7785C20.0607 17.5313 20.0261 17.1689 19.8169 16.9699L14.7707 12.1255Z" fill="#515378"/>
<path d="M10.8991 17.1255C10.6611 16.9264 10.3124 16.9684 10.1208 17.2219C9.92915 17.4691 9.96957 17.8315 10.2136 18.0306L16.1008 22.875C16.2221 22.9714 16.3673 23.0134 16.508 22.9963C16.6472 22.9776 16.7804 22.9061 16.8792 22.7785C17.0709 22.5313 17.0304 22.1689 16.7864 21.9699L10.8991 17.1255Z" fill="#515378"/>
<path d="M8.93041 20.1101C8.68412 19.9354 8.32322 19.9723 8.12495 20.1947C7.92668 20.4117 7.96851 20.7297 8.22099 20.9044L11.0696 22.8903C11.195 22.9749 11.3453 23.0117 11.4909 22.9967C11.635 22.9804 11.7728 22.9176 11.875 22.8057C12.0733 22.5886 12.0315 22.2707 11.779 22.096L8.93041 20.1101Z" fill="#515378"/>
<path d="M12.5963 23.1695C12.4384 22.9006 12.2072 22.9573 12.0801 23.2997C11.953 23.6337 11.9798 24.1232 12.1416 24.3921L12.4037 24.8311C12.4841 24.9614 12.5804 25.0181 12.6737 24.995C12.766 24.9698 12.8544 24.8731 12.9199 24.7009C13.047 24.3669 13.0202 23.8774 12.8584 23.6085L12.5963 23.1695Z" fill="#515378"/>
<path d="M15.0696 17.8903C15.195 17.9749 15.3453 18.0117 15.4909 17.9967C15.635 17.9803 15.7728 17.9176 15.875 17.8056C16.0733 17.5886 16.0315 17.2706 15.779 17.0959L12.9304 15.1101C12.6841 14.9354 12.3232 14.9723 12.125 15.1947C11.9267 15.4117 11.9685 15.7297 12.221 15.9044L15.0696 17.8903Z" fill="#515378"/>
<path d="M16.5963 18.1695C16.4384 17.9006 16.2072 17.9573 16.0801 18.2997C15.953 18.6337 15.9798 19.1232 16.1416 19.3921L16.4037 19.8311C16.4841 19.9614 16.5804 20.0181 16.6737 19.995C16.766 19.9698 16.8544 19.8731 16.9199 19.7009C17.047 19.3668 17.0202 18.8774 16.8584 18.6085L16.5963 18.1695Z" fill="#515378"/>
</svg>
