<svg width="32" height="30" viewBox="0 0 32 30" fill="none" xmlns="http://www.w3.org/2000/svg">
<path d="M6.2749 10.1588C6.5694 8.8818 7.47078 7.83005 8.68767 7.34353L17.7315 3.7278C19.2824 3.10776 21.0552 3.51661 22.1779 4.75322L28.7249 11.9644C29.6058 12.9347 29.9556 14.275 29.6611 15.552L27.2848 25.8561C26.7884 28.0088 24.6409 29.3514 22.4882 28.8549L6.89745 25.2595C4.74481 24.763 3.40219 22.6155 3.89862 20.4629L6.2749 10.1588Z" fill="#515378"/>
<path d="M0.999512 23.5781C0.999512 25.7872 2.79037 27.5781 4.99951 27.5781H20.9995C23.2087 27.5781 24.9995 25.7872 24.9995 23.5781V13.2487C24.9995 11.8527 24.2717 10.5577 23.0793 9.83188L15.4952 5.21548C14.2622 4.46495 12.7205 4.43697 11.461 5.14225L3.0451 9.85517C1.78187 10.5626 0.999512 11.8974 0.999512 13.3452V23.5781Z" fill="white"/>
<path d="M23.8805 9.2944L15.6461 3.80247C14.8623 3.27767 13.9464 3 13.0017 3C12.0571 3 11.1429 3.27764 10.3574 3.80247L2.12292 9.2944C0.792282 10.1781 0 11.6645 0 13.2592V24.6661C0 27.0548 1.94519 29 4.33391 29H21.6696C24.0583 29 26.0035 27.0548 26.0035 24.6661V13.2592C26.0035 11.6594 25.2112 10.1781 23.8805 9.2944ZM24.2699 24.6711C24.2699 26.105 23.1035 27.2715 21.6696 27.2715H4.33393C2.90001 27.2715 1.73358 26.105 1.73358 24.6711V13.2643C1.73358 12.2451 2.24147 11.3055 3.08624 10.7418L11.3207 5.24986C12.3263 4.57776 13.6789 4.57776 14.6845 5.24986L22.919 10.7418C23.7637 11.3055 24.2716 12.2502 24.2716 13.2643V24.6711H24.2699Z" fill="#515378"/>
<path d="M7.99951 17L11.4875 20.837C11.5063 20.8576 11.5291 20.8741 11.5546 20.8854C11.5801 20.8967 11.6076 20.9025 11.6355 20.9025C11.6634 20.9025 11.6909 20.8967 11.7164 20.8854C11.7419 20.8741 11.7648 20.8576 11.7835 20.837L17.9995 14" stroke="#515378" stroke-width="2" stroke-linecap="round"/>
</svg>
